<?xml version="1.0" standalone="no"?>
<!DOCTYPE svg PUBLIC "-//W3C//DTD SVG 20010904//EN"
 "http://www.w3.org/TR/2001/REC-SVG-20010904/DTD/svg10.dtd">
<svg version="1.0" xmlns="http://www.w3.org/2000/svg"
 width="500.000000pt" height="500.000000pt" viewBox="0 0 500.000000 500.000000"
 preserveAspectRatio="xMidYMid meet">
<metadata>
Created by potrace 1.14, written by Peter Selinger 2001-2017
</metadata>
<g transform="translate(0.000000,500.000000) scale(0.100000,-0.100000)"
fill="#000000" stroke="none">
<path d="M1040 2519 l0 -1800 743 4 c792 3 806 4 1037 58 470 108 794 348 980
724 140 285 193 557 194 995 1 438 -46 701 -175 978 -184 397 -491 644 -939
757 -278 71 -491 85 -1257 85 l-583 0 0 -1801z m1253 811 c152 -15 240 -35
325 -76 148 -71 253 -213 301 -405 43 -170 46 -475 6 -643 -77 -336 -312 -496
-727 -496 l-108 0 0 815 0 815 48 0 c26 0 96 -5 155 -10z"/>
</g>
</svg>
